<svg xmlns="http://www.w3.org/2000/svg" viewBox="0 0 316 157"><path d="M-77.4 312.4h.8l.4.3.9-.2h.6c.4.1.6.5.6 1.1l-.4.7c.5 0 .8.3.8.9l-1.3 1.4h-.2l-.2-.2h-.2c0 .7-1 2.3-3 4.7v.6l.4.3v.4c-.4.4-.6.8-.6 1.2h-.6v-.4l.2-.2v-.2h-.2c-.3.4-1.1 2.6-2.4 6.6-.4 1.4-2.6 6.1-6.5 14l-2.5 5.2 1.5.5.6-.6.9.2c0-.3.3-.5.9-.6v.2l.2-.2h.2l1.3.1c0-.5.9-.8 2.8-1.1l.2-.2h.4l.2.2.2-.2h.2l2.3.1.2-.2h.2l1.2.4.9-.2c.7.2 1 .6 1 1.1l-.4.8c.9 0 1.4.3 1.4 1.1-.4.4-.8.6-1.1.6v.4h.2l.9-.2.2.2v.6l-.4.4c-.6 0-.9-.1-.9-.3l-.6.2.2.9-.5.4c-2.3-.3-3.4-.8-3.5-1.6l-.8-.1-1.3.1c-.4.4-.9.6-1.3.6l-2.1.1-4.5.4-2.5-.1c-1.1 2.9-2 5.9-2.5 8.9v.6l.6.7 1.3-.5c.4.3.8 1.6 1.1 4l-.2.2.4.3v.8l-.3.4h-.6l-1-.1.2.6c-.2.6-.5.9-.7 1-.9 0-1.8-.9-2.8-2.9v-1.1h.4v-1h-.4v-.2l.4-.6-.4-.4v-.4c0-.3.2-.4.5-.4l-.2-.9.3-.6-.2-.2v-.2l.2-.2h.2l-.2-.2v-.2c0-.4.2-.9.5-1.4l-.2-.2.2-.2h.2l-.2-.2v-.4c.3 0 .5-.3.5-.8l-.2-.2.3-.4-.2-.2c.4-.2.8-1.4 1.4-3.5h-.2l-1.7-.1v-.4h-.4c0 .4-.2.7-.7 1l.2.6c-.8 1.6-1.6 3.9-2.3 6.9-.4 0-.9 1.9-1.3 5.6l-.5 1.2.2.2v.2l-.6 4.2.2.2-.2 1 .5 3h-.2c.6 2.1 1.3 3.7 2.1 4.9 1.4 1.4 3 2.1 4.6 2.3h.2c2-.1 3.8-1 5.4-2.9v-.2h-.4l.3-1.1v-.4l-.4-.3h-.4v.2l.2.2v.2c-.2.5-.3.8-.5.8h-.6c-.9-1.1-1.4-1.8-1.4-2.2l.6-.2-.7-2.1c.3-.7.9-1 1.9-1.1l.4.4.7-.2c1.1 0 2.1 1.1 3.2 3.3v.4c-1.1 2.7-1.8 4.3-2.3 4.9-2 1.5-3.6 2.2-4.6 2.3l-.2-.2v-.2l.2-.2h-.6l.2.2v.4l-1.2.3c-1.2.1-2.2-.2-3.1-.8-1.3-.3-2.6-1.9-4-4.8-.7-1.9-1.1-4.1-1.2-6.6l.2-.2v-.2l-.2-.2v-.2c.2-2.5.5-4.3.9-5.4l-.2-.2c1.4-6.3 2.8-11 4.4-14.1v-.4c0-.4-.8-.5-2.3-.5l-.2-.2v-.2l.2-.2v-.2l-1.1-.1h-.6v.2h.7v.4h-1.1l-.4-.4.2-.2-1-.2-2.7.1-.2-.2-.2.2-1.3-.1-1.7.1c-10 7.9-19.8 14.8-29.4 20.5l-1.3 1c-.8 0-1.5.3-1.9.8-2 1.4-4.1 2.5-6.1 3.3l-.2-.2c-.3.5-.8.9-1.5 1.4h-.4l-.2-.2h-.2c-.2.5-1.4 1.2-3.7 2.1l-3.3 1.5h-.2l-.2-.2c-2.3 1.5-5.9 2.8-10.9 3.9l-3.1.5.2.2v.2l-.2.2h-.7v-.2l.2-.2v-.2l-.2-.2h-.2l-.2.2c-.9 0-1.3-.1-1.3-.3l-.9.2v.2h.4v.4h-.9v-.8l-.2.2h-.2l-.2-.2h-.6v.2h.6v.2l-.4.4h-.4l-2.5-.7c-3.1-1.4-5-3.1-5.8-5.1l.2-.2v-.2c-.4-1.1-.7-2.3-.7-3.8v-.2h-.4v-.2c.4-2.8 1-4.2 1.5-4.2l-.2-.2v-.8h.8v-.2h-.4v-.2l.5-.6v.4h.2c0-.3.7-1.3 2.2-2.9h-.6c0 .3-.3.8-.9 1.4v-.4l1.1-1.5h.4v.4l.6-.2v-.2h-.6v-.6l2-1.6c1.6-1.3 3.8-2.3 6.7-3 2.2-.1 3.8.5 4.8 1.7l.5 3.4-1.3.4.2.2v.4c0 .3-.3.5-.9.6-.5 0-.8-.3-.8-1.1-.6 0-1-.5-1-1.5l-1.6-.3h-.4l-.8.2-.2-.2h-.2c-4.1 1.4-7 3.8-8.8 7.1-.5.9-.8 2.2-1 3.8.1 3.2 1.8 5.6 5 7l.2-.2c0 .5 1.8 1 5.4 1.3l.2-.2h.2l.6.1c2.6-.1 7.2-1.2 14-3.3l.2.2c1.1-1 2.1-1.6 3-1.6l.2.2c0-.3.7-.7 2.3-1.2l.2.2c0-.4.7-.8 2.1-1.1l.2-.2.2.2h.2c0-.5.5-.9 1.5-1.2v.2l6.9-3.9 2-1.2c2.5-1.3 4-2.2 4.3-2.7l6.1-3.7c6.2-4.1 10.9-7.5 14.2-10.1 2.9-2.3 4.4-3.6 4.4-3.8l-.2-.2-4.2.2-1.7-.1-.2.2-1.3-.1-7.6.3-.7.2-.8-.2-5.3.2-1.3.3v-.2l-.6.2c-5 .2-11.9.7-20.7 1.6v-.2l-.2.2h-.4l-.2-.2-2.2.5v-.2l-.2.2h-.2l-13.4 1.3-.2-.2h-.2l-.2.2h-.2l-.2-.2-3.8.7-1.3-.1-3 .5-.2-.2v-.2l-1.3.4-.6-.2-.3.4h-.6l-.4-.4-2.2.7-1.1-.1-2.5.5-.8-.2-.8.2v-.2c-.6.3-1.7.5-3.6.7l-1-.3c0 .3-2.2.6-6.6 1v.2h.8v.4h-1.2v-.2l.2-.2v-.2l-2.1-.1-3.8.4v.2l2.7-.1v.2l-.3.4-.6-.2-3.2.5-.4-.3-.6.2-2.5-.3-.2.2c-1.3.1-2.1-.4-2.5-1.2h-.4v-.2c.1-.9.4-1.4.7-1.4l-.2-.2v-.4l.5-.6c.8 0 1.1.2 1.2.5l1-.2c1.1.2 1.7.4 1.7.7l.6-.2c.5.2.8.3.8.5l-.3.4 1.7.1.2-.2 3.8.2c2-.4 4.8-.6 8.3-.8h.2l.6.4 1.1-.6h4.2l.8-.4 2.8.1.5-.4 1.3.1h1.1l.4-.4 1.9.1h.4c.6 0 1-.2 1-.4l1.3.1 1.5-.1c.6 0 1-.2 1-.4l1.9.1 9.5-1v.2l.2-.2h.2l19.2-1.8v.2l.2-.2h.2l9.7-.6 1.5-.2v.2l2.3-.7 7.8-.3.2.2.2-.2 3.4-.1.2.2.6-.2.2.2h.2l.2-.2h.2l.2.2h.2l.6-.2v.2l1.1-.4 4-.2.4.3 2.3-.3 2.1-.1 5-4.2-.2-.2v-.4c0-.2 1.6-1.8 4.7-4.6l9.7-9.9h-.2l-.9 1h-.4v-.2c0-.4.2-.6.7-.6 0-.4.8-1.6 2.5-3.5 0-.4.6-1.3 1.9-2.8h.8c.2 0 .4.2.4.6 1-.5 1.5-.8 1.5-1v-.2c-.4 0-.6-.1-.6-.4v-.4l.7-1-.6-.5v-.6c.4-.8 1.1-1.2 2.2-1.2h.2l.4.3c.8 0 1.6-.6 2.4-1.8l-.2-.6.3-2.1-.3-1.3c0-.2.3-.7.9-1.1zm-127.1 46.1h.6v.4h-.6v-.4zm18.6 17.8h.4v1.1h-.4v-1.1zm.3 1.7h.4l.4 1.9c-.3 0-.5-.6-.8-1.9zm2.2-9.4h.4v.2l-.5.6v-.2l.1-.6zm1.5 11l.2.2v.2l-.2.2h-.4v-.2l.4-.4zm2.4-14.4h.2c1.3-.9 2.1-1.4 2.4-1.4v-.2h-.2c-1.6.8-2.4 1.3-2.4 1.6zm3-2v.2h.4c.5-.2.8-.4.7-.6h-.2l-.9.4zm69.3-13.6l1.5-.1c3.2-.1 5.8-.1 7.8 0l-.2-.2v-.6h.4l.4.3-.2.2v.2h.9l-.2-.2v-.4l.8-.2.6.1.2-.2v-.2l-.2-.6c.2 0 .7-.9 1.6-2.7h.2l-.2-.2v-.2c1.2-2.8 3.1-6.4 5.6-10.7l-.2-.2v-.2l1-2.4c-8.1 8.2-14.7 14.2-19.8 18.5zm1.8 1.5h.9v.4l-.9-.2v-.2zm10.2 31.1h.4v.6h-.4v-.6zm-.4-46.2l.2.2v.2l-.2.2h-.4v-.2l.4-.4zm2.3 46.2h.2v.6h-.6v-.2l.4-.4zm5.1-45.4c-3 5-5 8.9-6.2 11.7v.2l.2.2v.2c.6-.4 1.4-.6 2.4-.7l4.8-10.9c-.2 0-.4-.2-.4-.6h-.2c0 .5-.1.7-.3.7l-.2-.2.2-.2v-.2l-.3-.2zm-5.8-2.4h.2v.2l-.3.4h-.2v-.2l.3-.4zm2.6 47.3v.6l-.7.2-.2-.2v-.2l.2-.2h.2l.2.2.3-.4zm-1.7-48.5l.2.2h.2l-.1.6h-.2l-.4-.4.3-.4zm1.7-1.6h.4v.6l-.8.4-.2-.2v-.2l.6-.6zm4.2 44.4l.6.5v-.2l-.4-.4-.2.1zm1.4-42.2l-.3.8.6.5.2-.9-.5-.4z"/><path d="M-71.5 336.7h.4l.3.3v.4l-.1.1v.1h.3c0-.5.1-.8.2-.8h.4l.4.4v.1c-.1.4-.4.5-.8.6 0 1-.2 1.6-.7 1.9-2.4 3-5.1 7.1-8.3 12.2v.1l.1-.1h.1l.5.1.3-.3h.3v.1l2.6-.5v.1c.3-.2.5-.3.5-.4l.7.1.4-.3.4.1c2.5-.4 4-.6 4.5-.8l.1.1v.1c.7-.1 1-.3 1-.5l.9.1h.3l.3-.3.5.1c2.9-.3 4.4-.5 4.4-.7l.7.1h.8c.4 0 .7-.1.7-.3l.7.1h1.1l.3-.3.8.1 7.4-.6.1-.1v-.1l.7.1 3.8-.2.4-.3h.1l.1.1.4-.1.2.1h.1l.4-.1v.1l.1-.1.9.1 3.3-.3.7.2.8-.2 4 .2v-.3l1.5-.2.4.2 1.3-.3.5.2.8-.2c.5.1.7.4.7.9v.1c0 .2-.1.3-.4.3v.1c.5 0 .7.2.7.4v.3l-.3.3h-.4l-.5-.4-.4.1.1.7-.3.3-1.5-.2c0 .3-.5.6-1.4.7h-.4c-.2 0-.3-.3-.3-.8-.4 0-.7-.1-.7-.2 0-.2.2-.3.7-.4v-.1l-.5-.2-.4.2c-.1-.4-.3-.7-.4-.7h-.3l.1.1v.3h-.1l-.2-.1h-.1l.1-.1v-.3c-2 0-3.1-.1-3.1-.4l-.5.1h-3l-2.1.2h-3.1l-.1.1h-.1l-.1-.1h-.1l-1.6.3-1.5-.1-1.7.2-.1-.1-2.5.4-.2-.1h-.1l-.1.1h-.1l-.2-.1-2.1.5-.7-.1-.4.1v-.1l-.8.3-1.1-.1-1.4.3-.8-.1-1.3.3-.4-.1-.8.3-.6-.1-.9.3-.1-.1h-.1l-.9.3-.6-.1-.5.1-.2-.1-.3.3-.5-.1-.8.3-.2-.1v-.1l-1 .5-.8-.1-.3.3-.5-.1-.8.3-.2-.1-.8.3-.5-.1-.3.3h-.1l-.1-.1-.1.2h-.1l-.2-.1-1.2.5-.4-.1-.3.3h-.3l-.2-.1c-1.5.5-2.2 1-2.2 1.7l-4.2 6.6c-.9 1.3-1.5 2.3-1.8 3.1-.2 0-.3.2-.2.7l-.9 1.6c-.2 0-.4.5-.5 1.3-.3 0-.9 1.7-1.9 5.1l-.1.8c.3 0 .4.1.4.4h.3c.9-.1 1.5-.6 2-1.4l.8-.8h.1c.2 0 .3.2.3.7h.1l.5-.4h.1l.3.3v.3l-.9 1.2.1.1v.4c-1.1 1-2.3 1.8-3.5 2.4-.7 0-1.4-.4-2.1-1.4v-.9h.3v.6l.3.3v-.1l-.3-1.3.5-1.3-.1-.4c.3 0 .4-.3.3-.8l1.3-3.1c.3-.1.5-.4.5-1.1-2 3.1-3.7 5.3-5.2 6.5-1.5 1.2-2.2 1.6-2.2 1.3h-.4v-.4c.2-.5.5-.7.8-.7v-.1c-.4 0-.5-.1-.5-.2v-.3c0-.2.6-.7 1.9-1.4l.6-.7c.2 0 .3.2.3.5 2.4-2.7 5-6.2 7.7-10.4l4.5-7.3v-.3l-.1.1h-.3l-.7-.1c0 .2-.7.5-2.2.9l-.2-.1h-.1l-4.6 1.2v.3h-.3v-.1l.1-.2v-.1h-.4c-.2 0-.3.2-.2.5h-.5v-.3h.3v-.1h-.1c-.4.1-.6.3-.6.7h-.1v-.1l-.1.1h-.1l-.3-.3.4-.1v-.1h-.1l-.5.2.2.1v.1c0 .2-.4.3-1.3.4l-.1-.1-1.7.3c-.3 0-.7-.3-1.1-.9-.3 0-.4-.1-.4-.2v-.1l.5-.5-.1-.1v-.4l.4-.4.7.2.5-.2 1.8.7h.1c0-.4.2-.5.4-.5h.1v.4c-.3 0-.4.1-.4.3l10.1-1.9.4.1.4-.4h.1l.2.1.5-.3.4.1c1.4-2.4 2.7-4.4 3.9-6l5.2-8h-.3v-.4l.4-.5-.1-.1V336.7zm-23.4 35.2v.1h.3c0-.2.2-.3.5-.4v-.3l-.8.6zm6.3-6.1l-.2.5v.1h.1l.2-.5v-.1h-.1zm.4 7.7c0 .2 0 .1-.1-.1v.3h.4v-.1l-.3-.1zm18.3-35.1h.1v.3h-.4l.3-.3z"/><path d="M-75.5 362h.1c.4 0 .6.1.6.2l.6-.1h.2c.2 0 .3.2.5.6l-.3.6v.1c.2 0 .4.1.4.2v.2l-.6.6h-.1v-.4h-.4c0 .6-.6 1.5-1.9 2.8l-1.9 1.8-1 1.7c.3 1 .7 1.5 1.5 1.5.4.1.6.2.6.3l-.2.4.6-.1h.9l.2-.2.6.1 3-.7v-.2l-1.4.4-.1-.1v-.1l.7-.4.1.1.7-.4h.1l.2.2-.1.1v.1c.5 0 .7.1.7.3v.4l-.2.2.1.1v.2c0 .3-1.6.7-4.9 1.1l-.3.2h-.7c-1.8.1-2.7-.8-2.7-2.5l-.1-.3.2-1.3c-3.9 3-6.7 4.5-8.3 4.6l-.7-.9v-.1l.3-.5-.3-.7.3-.4h.1l1.1.1c1.9-.5 3.4-1.3 4.6-2.2h.1v.2c-.1.2-.7.6-1.8 1.1v.1h.4c2.1-1.3 3.9-2.6 5.2-3.7l-.1-.1v-.2l.7-1.3c1.4-2.1 2.2-3.4 2.7-3.7zm-6 7.1h.1v.2l-.6.4h-.2v-.1l.7-.5zm.6-.4h.1v.4h-.4v-.1l.3-.3zm.7-.5h.2l-.1.4h-.4v-.1l.3-.3zm.5 2.4l-.6 1.7h.1v-1.1l-.1.1.6-.7zm.6-3.3l.1.1v.1l-.1.1h-.1l-.1-.1v-.1l.1-.1h.1zm1.9-2.6v.1l.8-.9c-.4.2-.7.5-.8.8zm.6 7.3h.6v.4h-.6v-.4zm2.3-.4l.1.1v.1l-.1.1h-.1l-.1-.1v-.1l.1-.1h.1zm4.2-18.3h.2c.4 0 .6.1.6.2l.6-.1h.2l.5.4v.7l-.1.1v.1l.2.2v.6l-.4.5-.5-.1c0 .9-.9 2.1-2.7 3.5l-.7.3-1-1.2c0-1.7.2-2.6.6-2.6h.1c.2 0 .4.1.4.5l.3-.2 1.1-1.1-.2-.3v-.6l.8-.9zm-2.6 5.1l.2.2v-.5l-.2.3z"/><path d="M-40.2 338c1.5-.1 2.2.3 2.3 1v.1l-.1.1v.1l.1.7v.1l-.2.2-.1-.6h-.1c-.4 2.2-2.2 5.2-5.4 9-1.7 2-4 4.4-6.9 7.1l-8.4 7.4c-1.3 1.1-2.4 2.3-3.2 3.7l-2 2.8.1.1h.1c4.9-4.5 8.4-7.1 10.5-7.7v-.1h-.1l-.9.3-.1-.1v-.1c1-.6 1.6-.9 2-.9h.1l.1.1h.1l.3-.4h.2l.5.1.5-.1c1.3.1 2 .5 2 1.2l-.1.5.2.9-.1.1h-.1l-.1-.3c-.2 0-.5.8-1.1 2.2-1.5 2.4-4.8 4.3-10.1 5.8v.1c.7.7 1.5 1.1 2.3 1.4v.2c.4 0 .7.2 1 .8l.1-.1h.2c.3-.2.9-.1 2 .3v.2l.5-.1c1.4.3 2.1.6 2.1.8v.1h.5v-.4h.4l.3.5c2.4-.5 4-1 4.9-1.3.3 0 1.6-1.1 3.9-3.2h.2l.4.3c0 .4-1.1 1.6-3.5 3.7-.2 0-.4.2-.8.6-.2 0-.4.1-.6.4-1.5.4-2.8.6-3.8.8v.1l-1.9-.2-.5.1-.1-.1v-.1l-.1.1h-.1c-1.2.1-4.1-1-8.7-3.3-1.6-.2-2.5-.4-2.5-.7v-.2c-.4 0-1.3.9-2.6 2.6-1 1.1-1.8 2.2-2.3 3.4h-.1l-.1-.1h-.1l-.7.8h-.2l-.2-.2v-.4l.1-.1v-.1h-.1l-.5.1-.1-.1.4-.8c-.2 0-.3-.2-.4-.6.4-.3.9-.8 1.5-1.6h.2v.2h.1v-.1l-.1-.5.1-.1h.2l.1.1h.1l4.8-5.9h-.2l-.1-.1-.1.1c0 .3-1.5 1.4-4.6 3.4l-1.6.9c-.9.6-1.7 1-2.4 1.2-.4 0-.6-.2-.7-.7h-.2v-.5c0-.2.1-.3.5-.4v-.1h-.2v-.2c0-.5.5-.8 1.5-.9 0-.2.2-.3.7-.4v.1l.5-.3.4.1 1.1-.6h.2v.2c-.3 0-.8.3-1.4.8h.4l2.6-1.5c2.6-1.4 5.1-3.6 7.5-6.6 5.5-7.8 10.1-14.1 14-19 1.7-1.9 2.7-2.9 2.9-2.9v-.1h-.4l-.2.2h-.1c0-.4.6-1 1.8-1.8-.1-.6.7-1.1 1.8-1.6zm-27.1 31v.1l-.2.2v-.1l.2-.2zm2.1 2.1h.1l.2-.2h-.1l-.2.2zm3.3-1.7v.1l.6.1c.1-.2.3-.4.7-.4l.1.1.1-.1h.2l.1.1h.1c.1-.2.3-.4.7-.4l.1.1c0-.2.6-.4 1.7-.8l.1.1v.2l-.7.1.1.1v.1l.8-.4-.1-.1v-.1l3.1-1.7c1.9-1.6 3-2.8 3.1-3.5l-.5-.2c-2 .1-5.1 1.9-9.4 5.3l-.9 1.3zm1.9.1v.1l.4.1v-.2h-.4zm.5-.2v.2c.9-.2 1.4-.4 1.4-.6h-.1l-1.3.4zm1.2-7.7c2.9-2.3 6.9-5.9 11.9-11.1 2.2-2.5 3.6-4.3 4.3-5.6l-.2-.2.1-.1h.1l.1.1h.1l.3-.5-.1-.3.1.1h.1l.1-.1-.1-.1v-.2c.6-1.4 1.1-2 1.3-2l-.1-.3.3-.6h-.1c-1.5.1-4.2 2.7-8.4 7.6l-5.9 7.8-3.9 5.5zm1.4 6.8v.1h.1l1-.3v-.1h-.4l-.7.3zm.6-5.2l-.3.4h-.1v-.2l.4-.2zm.7 4.9h.1c1.1-.6 2.4-1.4 3.6-2.5v-.2l-1.8 1.5c-1.2.6-1.8 1-1.9 1.2zm.4-5.8l.1.1v.1l-.2.2h-.1v-.2l.2-.2zm1.8-.3h.1l.3-.1v-.2l-.4.3zm2 2.7l-.1.1v.2h.1l.1-.4-.1.1zm.9 9.8l.2.2-.1.1h-.1l-.2-.2.1-.1h.1zm1.8-.6v.4l-.6.1h-.2l.3-.4.1.1h.1l.3-.2zm1.4-.6l.4.8-.6-.4v-.1l.2-.3zm2.7-31.7l.1.1v.4l-.6.1v-.1l.5-.5zm2.3-1.7l-1.2 1v.2c.8-.7 1.3-1.1 1.5-1.1v-.1h-.3z"/><path d="M-24.3 358.9h.1l.2.2.6-.1h.2c.5.2.7.5.7.9l-.1.6.2.2v.2c-.3 1-.5 1.4-.8 1.4l-.1-.1v-.1l.4-.6v-.4c-.3 0-.6.5-.8 1.6-2.6 2.3-3.9 3.7-3.9 4.3l-.4 1.2c0 1 .4 1.9 1.2 2.5l.1-.1h.1c.4.1.6.2.6.3l.1-.1 1.2.2v.2h-.8v.1h.9l1.4-.6.9-.7-.8.9v.1l.8-.8 2.2-1 .2.3v.2l-.6.8-1.5 1.2-.1-.1h-.1l-.9 1.1h-.1l-.1-.1-.7.3h-.7v-.1l.1-.1v-.1h-.8v.1h.5v.1l-1.2.3c-1.3.1-2.4-.8-3.3-2.4v-.7c.2 0 .3.3.4.9h.1l-.1-.6v-.7l-.4-.1.3-2-4 3c-2.5 2-4.6 3.2-6.4 3.6l-.1.1h-.4c-.6 0-1.1-.2-1.4-.8-.2 0-.4-.3-.4-.8.1-1.2.3-1.9.5-2.1v-.2l-.1.1-1.6 1.2c-.1 0-.3-.2-.4-.6h-.4v-.2l.7-.8c1-.8 1.7-1.7 2.3-2.7l2.1-2.1c.5-.9 1-1.8 1.8-2.8l1.8-2.2c0-.2.2-.5.7-.8h.5l.2.2.6-.1h.4c.1 0 .3.2.5.7l-.1.5.2.3c0 .6-.3 1-.9 1v-.1l.1-.4c-.3 0-.5.4-.4 1.1-2.5 2.1-4.2 3.7-5 4.8-1.2 2.3-1.8 3.7-1.8 4.2l.6.3 2.4-.7.1.1v.1l-.3.4h.1c1.5-.8 3.9-2.4 7.3-5 1.1-.9 1.8-1.5 2-2h.2l-.2-.3c.1-.4.3-.6.4-.6l.1.1v-.1l-.1-.1v-.1l.7-1.8 1.1-2.3c.7-.4 1.1-.6 1.4-.7zm-16.9 13.7v.5h.1v-.5h-.1zm5.3-1.8l-.3.4-.1-.1v-.1l.1-.1.3-.1zM139.6 278.2h1l.5.5 1.2-.3h.8c.5.2.8.7.8 1.5l-.5 1c.7 0 1.1.4 1.1 1.3l-1.7 1.9h-.3l-.2-.3h-.3c0 .9-1.3 3.1-4.1 6.3v.8l.6.5v.5c-.5.6-.8 1.1-.8 1.6h-.8v-.5l.3-.3v-.3h-.3c-.4.5-1.5 3.4-3.2 8.9-.6 2-3.5 8.2-8.7 18.8l-3.3 7.1 2 .7.8-.8 1.3.2c0-.4.4-.7 1.3-.8v.3l.2-.3h.3l1.8.2c0-.7 1.2-1.1 3.8-1.5l.3-.3h.5l.3.3.3-.3h.3l3.1.1.3-.3h.2l1.6.5 1.2-.3c.9.3 1.3.8 1.4 1.5l-.5 1.1c1.2-.1 1.8.4 1.9 1.5-.6.5-1.1.8-1.5.8v.5h.3l1.2-.3.3.3v.8l-.5.5c-.8 0-1.3-.1-1.3-.4l-.8.3.3 1.2-.7.6c-3.1-.4-4.6-1.1-4.7-2.2l-1-.2-1.8.1c-.6.5-1.2.8-1.8.8l-2.8.1-6.1.5-3.3-.1c-1.5 3.9-2.7 7.9-3.4 11.9v.8l.8 1 1.8-.6c.5.4 1 2.2 1.5 5.3l-.3.3.5.5v1l-.5.5h-.8l-1.3-.2.3.8c-.3.8-.6 1.2-1 1.3-1.2.1-2.5-1.3-3.8-3.9l-.1-1.5h.5l-.1-1.3h-.5v-.2l.5-.8-.6-.5v-.5c0-.4.2-.6.7-.6l-.3-1.2.5-.8-.3-.3v-.3l.3-.2h.3l-.3-.3v-.3c0-.5.2-1.2.7-1.8v-.4l.2-.3h.3l-.3-.3v-.5c.4 0 .7-.4.7-1.1l-.2-.3.5-.5-.3-.3c.5-.3 1.1-1.9 1.9-4.7h-.3l-2.3-.2v-.5h-.5c0 .5-.3.9-1 1.3l.3.8c-1.1 2.2-2.1 5.3-3.2 9.4-.6 0-1.2 2.5-1.8 7.6l-.7 1.6.3.3v.2l-.8 5.7.3.2-.2 1.3.7 4.1h-.2c.8 2.8 1.7 5 2.8 6.5 1.9 1.8 4 2.9 6.2 3.1h.3c2.7-.1 5.1-1.4 7.3-3.9v-.3h-.5l.4-1.5v-.5l-.5-.5h-.5v.3l.2.2v.3c-.2.7-.5 1.1-.7 1.1h-.8c-1.3-1.5-1.9-2.5-1.9-3l.8-.3-.9-2.8c.4-.9 1.2-1.4 2.5-1.4l.6.5 1-.3c1.4-.1 2.9 1.4 4.3 4.5v.5c-1.5 3.6-2.5 5.8-3.1 6.6-2.8 2-4.8 3-6.3 3l-.3-.2v-.3l.3-.3h-.8l.3.3v.5l-1.6.3c-1.6.1-3-.3-4.1-1.1-1.8-.4-3.6-2.5-5.4-6.5-.9-2.5-1.5-5.5-1.6-8.9l.2-.3v-.3l-.2-.2v-.3c.2-3.4.6-5.8 1.2-7.3l-.3-.2c1.9-8.4 3.8-14.8 5.9-19v-.5c0-.5-1-.7-3.1-.6l-.3-.3v-.2l.3-.3v-.3l-1.5-.2h-.8v.2h1v.5l-1.5.1-.5-.5.3-.2-1.3-.2-3.6.2-.2-.3-.3.3-1.8-.2-2.3.1c-13.5 10.7-26.7 19.9-39.7 27.6l-1.7 1.3c-1.1 0-2 .4-2.5 1.1-2.8 1.8-5.5 3.3-8.3 4.4l-.2-.2c-.4.6-1 1.3-2 1.9h-.5l-.3-.3h-.3c-.3.7-1.9 1.6-5 2.8l-4.5 2h-.3l-.3-.3c-3.1 2-8 3.8-14.6 5.3l-4.1.7.3.3v.3l-.3.2h-1v-.2l.2-.3v-.3l-.2-.3H12l-.3.3c-1.2-.1-1.8-.2-1.8-.4l-1.2.3v.3h.5v.5l-1.3.1v-1l-.3.2h-.3l-.2-.2h-.8v.2h.8v.3l-.5.6h-.5l-3.4-.9c-4.1-1.9-6.7-4.2-7.8-6.9l.3-.3v-.2c-.6-1.5-.9-3.2-1-5.1v-.3h-.5v-.3c.6-3.8 1.3-5.7 2.1-5.7l-.3-.3v-1h1v-.2H-4v-.3l.7-.8v.5h.2c0-.4 1-1.7 2.9-3.9H-1c0 .4-.4 1.1-1.2 1.9v-.5l1.4-2.1h.5v.5l.8-.3v-.2h-.8v-.8l2.7-2.2c2.1-1.8 5.2-3.1 9.1-4 3-.1 5.1.6 6.5 2.3l.7 4.6-1.8.6.2.3v.5c0 .4-.4.7-1.2.8-.7 0-1.1-.5-1.1-1.5-.8 0-1.3-.6-1.3-2l-2.1-.5h-.5l-1 .3-.3.1h-.3c-5.5 1.9-9.4 5.1-11.9 9.5-.6 1.2-1.1 3-1.3 5.2.2 4.4 2.4 7.5 6.8 9.4l.3-.2c0 .7 2.4 1.3 7.2 1.7l.3-.2h.3l.8.2c3.5-.1 9.7-1.6 18.8-4.4l.2.3c1.5-1.4 2.9-2.1 4.1-2.2l.2.2c0-.4 1-1 3-1.7l.2.3c0-.5.9-1 2.8-1.4l.3-.2.3.2h.2c0-.7.6-1.3 2-1.6v.3l9.3-5.3 2.7-1.6c3.4-1.8 5.4-3 5.8-3.6L70 349c8.4-5.6 14.8-10.1 19.2-13.6 3.9-3.1 5.9-4.8 5.9-5.2l-.2-.2-5.7.2-2.3-.2-.3.3-1.8-.2-10.2.4-1 .3-1-.2-7.2.3-1.8.3v-.3l-.8.3c-6.8.3-16 1-27.9 2.2v-.2l-.3.2h-.5l-.3-.2-3 .6v-.3l-.3.3h-.3l-18.1 1.8-.3-.3h-.3l-.3.3H11l-.3-.3-5.1 1-1.8-.1-4.1.7-.3-.3v-.2l-1.8.6-.8-.2-.5.6h-.8l-.6-.5-3 .9-1.5-.2-3.3.6-1-.2-1 .3v-.3c-.7.4-2.4.7-4.8 1l-1.3-.4c0 .4-2.9.9-8.9 1.4v.3h1v.5l-1.6.1v-.3l.3-.2v-.3l-2.8-.2-5.1.5v.3l3.6-.2v.2l-.5.6-.8-.2-4.3.7-.6-.5-.8.3-3.3-.4-.3.3c-1.7.1-2.9-.5-3.4-1.7h-.5v-.3c.2-1.2.5-1.8 1-1.8l-.3-.2v-.5l.7-.8c1 .1 1.5.3 1.6.7l1.3-.3c1.5.3 2.3.6 2.3.9l.8-.3c.7.2 1.1.5 1.1.7l-.5.5 2.3.2.3-.3 5.1.3c2.7-.5 6.4-.8 11.2-1h.3l.8.5 1.5-.8h5.7l1-.5 3.8.1.7-.6 1.8.2 1.5-.1.5-.6 2.6.2h.5c.9 0 1.3-.2 1.3-.5l1.8.1 2-.1c.9 0 1.3-.2 1.3-.5l2.6.2 12.8-1.3v.2l.2-.2h.3l25.8-2.4v.3l.2-.3h.3l13.1-.8 2-.3v.2l3.1-.9L76 329l.2.3.3-.3 4.6-.2.2.3.8-.3.3.3h.3l.2-.3h.3l.3.3h.3l.8-.3v.3l1.5-.6 5.4-.2.5.5 3-.4 2.8-.1 6.7-5.6-.3-.3v-.5c0-.3 2.1-2.4 6.4-6.2l13.1-13.4h-.3l-1.3 1.4h-.5v-.3c0-.5.3-.8 1-.8 0-.6 1.1-2.2 3.4-4.7 0-.6.9-1.8 2.6-3.7h1c.3 0 .5.2.5.7 1.4-.6 2-1.1 2-1.4v-.2c-.5 0-.8-.1-.8-.5v-.5l1-1.4-.8-.7v-.8c.5-1 1.5-1.6 3-1.7h.3l.5.5c1 0 2.1-.9 3.2-2.4l-.3-.8.4-2.9-.3-1.8c0-.9.4-1.6 1.3-2.1zm-171.4 62.1h.8v.5h-.8v-.5zm25.1 24.1h.5l.1 1.5h-.5l-.1-1.5zm.4 2.2h.5l.6 2.5c-.4.1-.7-.8-1.1-2.5zm3-12.7h.5v.3l-.7.8v-.3l.2-.8zm1.9 14.9l.3.2v.3l-.3.3h-.5v-.3l.5-.5zm3.3-19.4h.3c1.7-1.3 2.8-1.9 3.2-1.9v-.2h-.3c-2.1.9-3.2 1.7-3.2 2.1zm4-2.8v.3h.5c.7-.3 1-.6 1-.8h-.3l-1.2.5zm93.4-18.3l2.1-.1c4.3-.2 7.8-.2 10.5 0l-.3-.2v-.8h.5l.6.5-.3.3v.2l1.3-.1-.2-.2v-.5l1-.3.8.2.2-.2v-.3l-.3-.8c.3 0 1-1.3 2.1-3.7h.3l-.3-.3v-.2c1.7-3.8 4.2-8.6 7.6-14.5l-.2-.3v-.2l1.4-3.2c-11 10.8-19.9 19-26.8 24.7zm2.4 2l1.3-.1v.5l-1.3-.2v-.2zm13.8 42h.5v.8h-.5v-.8zM115 310l.3.2v.3l-.3.3h-.5v-.3l.5-.5zm3.1 62.2h.3v.8h-.8v-.3l.5-.5zm6.9-61.1c-4 6.7-6.8 11.9-8.3 15.7v.3l.3.2v.3c.8-.5 1.9-.8 3.3-.9l6.5-14.6c-.3 0-.5-.2-.5-.7h-.3c0 .7-.1 1-.4 1l-.3-.2.3-.3v-.3l-.6-.5zm-7.8-3.3h.3v.3l-.5.5h-.3v-.2l.5-.6zm3.4 63.8v.8l-1 .3-.3-.2v-.3l.3-.3h.2l.3.3.5-.6zm-2.2-65.4l.3.3h.2l-.2.8h-.3l-.6-.5.6-.6zm2.2-2.1h.5v.8l-1 .6-.3-.3v-.3l.8-.8zm5.6 59.8l.8.7v-.2l-.6-.5h-.2zm2-56.8l-.4 1.1.8.7.2-1.3-.6-.5z"/><path d="M162.5 331.9h.4l.4.3.7-.3.4.3v.2l-.6.7v.1l.1-.1h.5v.4l-.2.2-.5-.1c0 .5-.8 1.6-2.5 3 0 .3-1.5 2-4.6 5.1-.2 0-.2.1-.2.4-.1 0-.9.9-2.2 2.6-.3.1-.5.3-.6.6-.2 0-.3.1-.3.4l-3.6 3.6c-.7.8-1.3 1.2-1.7 1.5 0 .2-1.5 1.8-4.6 4.7l-1.1 1.7-1.8 2.4c-2.3 3.3-3.4 5.6-3.4 6.9l.4.2.5-.3.5.1-.2.4h.1c2.2-.3 3.9-1.4 5.1-3.3l.2-.6c-.4 0-.7-.2-1-.7l-.4-.3v-.1l.2-.8-.2-.2v-.1c0-.7.5-1.1 1.6-1.4l.5.2.3-.1c.6 0 .9.2 1 .8l-.3.5v.1c.2 0 .4.1.4.2l-.2.2-.1-.1v.5l.6.1c1.6.2 2.8.2 3.7-.2.3.1.5.2.5.3 0 .4-.2.6-.8.8h-.2v.1l.1.3h-.2v-.4h-.1c-.4 0-.6.2-.6.5h-.2v-.1l.1-.1v-.1h-.2l-.8.2.1.1v.2h-.9v-.2h.4v-.1l-1.1-.6v.1h.6v.1c0 .2-.4.3-1.2.4l-.4-.1c-.4 1-1.1 1.8-2.1 2.5l-1.2 1.2-1.4.9c-1.4.8-2.4 1.3-3.1 1.3-.2 0-.5-.3-1.1-1v-.1c0-.9.3-1.8 1.1-2.6 0-.2.1-.6.3-1.3.3-.7 1.4-2.4 3.4-5.1v-.2c.2 0 .4-.3.7-.8h-.1l-4.2 3.6c0 .3-.5.7-1.5 1.4-1.8 1.5-3.4 2.6-4.9 3.1h-.2l-.7-.7.6-.8c-.2 0-.4-.1-.4-.2v-.2c0-.3.8-.6 2.3-.8 0-.2.2-.4.7-.4l.2-.2.2.2c-.5.2-.7.3-.7.5h.2c2.8-1.6 6.6-4.7 11.5-9.4.7-1.1 1.3-1.9 1.9-2.3 0-.3.2-.6.8-1 0-.3.3-.7 1-1.2.2-.5.5-.8.9-1.1 0-.2.2-.5.7-1 0-.2.2-.3.7-.5 0-.4.6-1.2 1.8-2.2.3-.7 1.2-1.7 2.6-3 0-.2.6-.8 1.7-1.8.8-1.1 2.9-3.2 6.1-6.4l-.4-.1c-.5-.7-.2-1.1.2-1.4zm-26.7 35.7v.4h.2v-.4h-.2zm3.5-1.7l.2.2-.1.1h-.4v-.1l.3-.2zm3.2-4.3v.4h.2v-.1l-.2-.3zm3.3-9.8l.2.2.7-.7h-.1l-.8.5zm.9-1.1l.1.1v.1l-.1.1v.1h.1c.7-.6 1.4-1.3 2-2.1 1.7-1.5 3.4-3.1 4.9-5 1.6-1.6 2.7-2.9 3.5-4 1.8-1.8 2.9-3.2 3.5-4l-2.7 2.2c0 .2-1 1.2-3 3.1 0 .2-1 1.4-3.1 3.5 0 .3-.6.9-1.9 2.1 0 .2-.4.8-1.3 1.7 0 .2-.3.5-1 1.1 0 .5-.3.8-1 1z"/><path d="M168.1 350.9h.1l.2.2.6-.1h.2c.5.2.7.5.7.9l-.1.6.2.2v.2c-.3 1-.5 1.4-.8 1.4l-.1-.1v-.1l.4-.6v-.4c-.3 0-.6.5-.8 1.6-2.6 2.3-3.9 3.7-3.9 4.3l-.4 1.2c0 1 .4 1.9 1.2 2.5l.1-.1h.1c.4.1.6.2.6.3l.1-.1 1.2.2v.2h-.8v.1h.9l1.4-.6.9-.7-.8.9v.1l.8-.8 2.2-1 .2.3v.2l-.6.8-1.5 1.2-.1-.1h-.1l-.9 1.1h-.1l-.1-.1-.7.3h-.7v-.1l.1-.1v-.1h-.8v.1h.5v.1l-1.2.3c-1.3.1-2.4-.8-3.3-2.4v-.7c.2 0 .3.3.4.9h.1l-.1-.6v-.7l-.4-.1.3-2-4 3c-2.5 2-4.6 3.2-6.4 3.6l-.1.1h-.4c-.6 0-1.1-.2-1.4-.8-.2 0-.4-.3-.4-.8.1-1.2.3-1.9.5-2.1v-.2l-.1.1-1.6 1.2c-.1 0-.3-.2-.4-.6h-.4v-.2l.7-.8c1-.8 1.7-1.7 2.3-2.7l2.1-2.1c.5-.9 1-1.8 1.8-2.8l1.8-2.2c0-.2.2-.5.7-.8h.5l.2.2.6-.1h.4c.1 0 .3.2.5.7l-.1.5.2.3c0 .6-.3 1-.9 1v-.1l.1-.4c-.3 0-.5.4-.4 1.1-2.5 2.1-4.2 3.7-5 4.8-1.2 2.3-1.8 3.7-1.8 4.2l.6.3 2.4-.7.1.1v.1l-.3.4h.1c1.5-.8 3.9-2.4 7.3-5 1.1-.9 1.8-1.5 2-2h.2l-.2-.3c.1-.4.3-.6.4-.6l.1.1v-.1l-.1-.1v-.1l.7-1.8 1.1-2.3c.6-.5 1-.7 1.4-.7zm-16.9 13.6v.5h.1v-.5h-.1zm5.3-1.8l-.3.4-.2-.1v-.1l.1-.1.4-.1z"/><path d="M203.4 330.2h.4l.4.3.7-.3.4.3v.2l-.6.7v.1l.1-.1h.5v.4l-.2.2-.5-.1c0 .5-.8 1.6-2.5 3 0 .3-1.5 2-4.6 5.1-.2 0-.2.1-.2.4-.1 0-.9.9-2.2 2.6-.3.1-.5.3-.6.6-.2 0-.3.1-.3.4l-3.6 3.6c-.7.8-1.3 1.2-1.7 1.5 0 .2-1.5 1.8-4.6 4.7l-1.1 1.7-1.8 2.4c-2.3 3.3-3.4 5.6-3.4 6.9l.4.2.5-.3.5.1-.2.4h.1c2.2-.3 3.9-1.4 5.1-3.3l.2-.6c-.4 0-.7-.2-1-.7l-.4-.3v-.1l.2-.8-.2-.2v-.1c0-.7.5-1.1 1.6-1.4l.5.2.3-.1c.6 0 .9.2 1 .8l-.3.5v.1c.2 0 .4.1.4.2l-.2.2-.1-.1v.5l.6.1c1.6.2 2.8.2 3.7-.2.3.1.5.2.5.3 0 .4-.2.6-.8.8h-.2v.1l.1.3h-.2v-.4h-.1c-.4 0-.6.2-.6.5h-.2v-.1l.1-.1v-.1h-.2l-.8.2.1.1v.2h-.9v-.2h.4v-.1l-1.1-.6v.1h.6v.1c0 .2-.4.3-1.2.4l-.4-.1c-.4 1-1.1 1.8-2.1 2.5l-1.2 1.2-1.4.9c-1.4.8-2.4 1.3-3.1 1.3-.2 0-.5-.3-1.1-1v-.1c0-.9.3-1.8 1.1-2.6 0-.2.1-.6.3-1.3.3-.7 1.4-2.4 3.4-5.1v-.2c.2 0 .4-.3.7-.8h-.1l-4.2 3.6c0 .3-.5.7-1.5 1.4-1.8 1.5-3.4 2.6-4.9 3.1h-.2l-.7-.7.6-.8c-.2 0-.4-.1-.4-.2v-.2c0-.3.8-.6 2.3-.8 0-.2.2-.4.7-.4l.2-.2.2.2c-.5.2-.7.3-.7.5h.2c2.8-1.6 6.6-4.7 11.5-9.4.7-1.1 1.3-1.9 1.9-2.3 0-.3.2-.6.8-1 0-.3.3-.7 1-1.2.2-.5.5-.8.9-1.1 0-.2.2-.5.7-1 0-.2.2-.3.7-.5 0-.4.6-1.2 1.8-2.2.3-.7 1.2-1.7 2.6-3 0-.2.6-.8 1.7-1.8.8-1.1 2.9-3.2 6.1-6.4l-.4-.1c-.4-.8-.2-1.2.2-1.4zm-26.7 35.7v.4h.2v-.4h-.2zm3.5-1.7l.2.2-.1.1h-.4v-.1l.3-.2zm3.2-4.3v.4h.2v-.1l-.2-.3zm3.4-9.9l.2.2.7-.7h-.1l-.8.5zm.9-1.1l.1.1v.1l-.1.1v.1h.1c.7-.6 1.4-1.3 2-2.1 1.7-1.5 3.4-3.1 4.9-5 1.6-1.6 2.7-2.9 3.5-4 1.8-1.8 2.9-3.2 3.5-4l-2.7 2.2c0 .2-1 1.2-3 3.1 0 .2-1 1.4-3.1 3.5 0 .3-.6.9-1.9 2.1 0 .2-.4.8-1.3 1.7 0 .2-.3.5-1 1.1-.1.6-.4.9-1 1z"/><path d="M202.1 350.7c1.8.1 2.7.4 2.7.8l.6-.1h.2l.5.4v.2l-.1.6c.2 0 .4.1.4.2v.2l-.8 1.3.1-.9v-.1h-.1c-.6 1.9-1.1 3-1.6 3.5l-1.1 1.6c0 .8.4 1.4 1.1 1.8v.5h.1l.1-.1.1-.1h.1c.5.1.7.3.7.4l2-.6-1.5.4 1-.2c.2 0 .4.1.4.2v.4c0 .2-.1.4-.5.4l.1.1v.1c0 .2-.8.5-2.3.9-2-.2-3.1-1.2-3.1-2.9-3.6 2.5-6.2 3.9-7.8 4.2l-1.2.3c-.8-.2-1.5-.6-2.1-1.4l-.1-.5c.3-2 .6-3 1-3l.1-.1-.1-.1v-.1l.2-.5.1.1h.2c1.8-2.8 3.8-4.6 6-5.6l.1-.1v-.2l-1.1.6h-.2v-.1c.5-.5 1.9-1.2 4.3-2.1h1.1l.4-.4zM190.5 362v.6h.1v-.6h-.1zm1.2-1.1c.3.6.7 1 1.2 1.2l.2-.2.1.1h.1l.2-.2.1.1h.1l2.3-.9v.2l-1.6.8.4.1 3.4-1.8c2-1.5 3.1-2.3 3.1-2.5 0-.8.5-2.2 1.5-4.4v-.1l-1.9-.2c-2 .3-4.1 1.4-6.3 3.3l-1.8 2c-.6 1.1-1 2-1.1 2.5zm1.1-4.5l.1.1v.1l-.1.1h-.1l-.1-.1v-.1l.1-.1h.1zm1.1 5.7l.2.2h.1v-.2h-.3zm1.5-8.3l.1.1v.1l-.1.1h-.2v-.1l.2-.2zm2.6 6.1l.1.1v.1l-.1.1h-.1l-.1-.1v-.1l.1-.1h.1zm.1-7.4h.2c.3-.2.6-.4 1-.4l.1-.1v-.1h-.1c-.8.2-1.2.4-1.2.6zm1.5-.8v.1h.6v-.2l-.6.1zm.8 6.6v.4h-.1l-.2-.2.1-.1.2-.1zm1.1 1.1v.6l.1-.1h.1l-.1-.5h-.1zm1.2.4v.1c.3.5.5.7.6.7v-.1l-.6-.7z"/><path d="M238.5 326.3c1.5-.1 2.2.3 2.3 1v.1l-.1.1v.1l.1.7v.1l-.2.2-.1-.6h-.1c-.4 2.2-2.2 5.2-5.4 9-1.7 2-4 4.4-6.9 7.1l-8.4 7.4c-1.3 1.1-2.4 2.3-3.2 3.7l-2 2.8.1.1h.1c4.9-4.5 8.4-7.1 10.5-7.7v-.1h-.1l-.9.3-.1-.1v-.1c1-.6 1.6-.9 2-.9h.1l.1.1h.1l.3-.4h.2l.5.1.5-.1c1.3.1 2 .5 2 1.2l-.1.5.2.9-.1.1h-.1l-.1-.3c-.2 0-.5.8-1.1 2.2-1.5 2.4-4.8 4.3-10.1 5.8v.1c.7.7 1.5 1.1 2.3 1.4v.2c.4 0 .7.2 1 .8l.1-.1h.2c.3-.2.9-.1 2 .3v.2l.5-.1c1.4.3 2.1.6 2.1.8v.1h.5v-.4h.4l.3.5c2.4-.5 4-1 4.9-1.3.3 0 1.6-1.1 3.9-3.2h.2l.4.3c0 .4-1.1 1.6-3.5 3.7-.2 0-.4.2-.8.6-.2 0-.4.1-.6.4-1.5.4-2.8.6-3.8.8v.1l-1.9-.2-.5.1-.1-.1v-.1l-.1.1h-.1c-1.2.1-4.1-1-8.7-3.3-1.6-.2-2.5-.4-2.5-.7v-.2c-.4 0-1.3.9-2.6 2.6-1 1.1-1.8 2.2-2.3 3.4h-.1l-.1-.1h-.1l-.7.8h-.2l-.2-.2v-.4l.1-.1v-.1h-.1l-.5.1-.1-.1.4-.8c-.2 0-.3-.2-.4-.6.4-.3.9-.8 1.5-1.6h.2v.2h.1v-.1l-.1-.5.1-.1h.2l.1.1h.1l4.8-5.9h-.2l-.1-.1-.1.1c0 .3-1.5 1.4-4.6 3.4l-1.6.9c-.9.6-1.7 1-2.4 1.2-.4 0-.6-.2-.7-.7h-.2v-.5c0-.2.1-.3.5-.4v-.1h-.2v-.2c0-.5.5-.8 1.5-.9 0-.2.2-.3.7-.4v.1l.5-.3.4.1 1.1-.6h.2v.2c-.3 0-.8.3-1.4.8h.4l2.6-1.5c2.6-1.4 5.1-3.6 7.5-6.6 5.5-7.8 10.1-14.1 14-19 1.7-1.9 2.7-2.9 2.9-2.9v-.1h-.4l-.2.2h-.1c0-.4.6-1 1.8-1.8 0-.6.7-1.1 1.8-1.6zm-27.1 31v.1l-.2.2v-.1l.2-.2zm2.1 2.1h.1l.2-.2h-.1l-.2.2zm3.3-1.7v.1l.6.1c.1-.2.3-.4.7-.4l.1.1.1-.1h.2l.1.1h.1c.1-.2.3-.4.7-.4l.1.1c0-.2.6-.4 1.7-.8l.1.1v.2l-.7.1.1.1v.1l.8-.4-.1-.1v-.1l3.1-1.7c1.9-1.6 3-2.8 3.1-3.5l-.5-.2c-2 .1-5.1 1.9-9.4 5.3l-.9 1.3zm1.9 0v.1l.4.1v-.2h-.4zm.5-.1v.2c.9-.2 1.4-.4 1.4-.6h-.1l-1.3.4zm1.2-7.7c2.9-2.3 6.9-5.9 11.9-11.1 2.2-2.5 3.6-4.3 4.3-5.6l-.2-.2.1-.1h.1l.1.1h.1l.3-.5-.1-.3.1.1h.1l.1-.1-.1-.1v-.2c.6-1.4 1.1-2 1.3-2l-.1-.3.3-.6h-.1c-1.5.1-4.2 2.7-8.4 7.6l-5.9 7.8-3.9 5.5zm1.4 6.8v.1h.1l1-.3v-.1h-.4l-.7.3zm.7-5.2l-.3.4h-.1v-.2l.4-.2zm.6 4.9h.1c1.1-.6 2.4-1.4 3.6-2.5v-.2l-1.8 1.5c-1.1.5-1.8.9-1.9 1.2zm.5-5.8l.1.1v.1l-.2.2h-.1v-.2l.2-.2zm1.7-.3h.1l.3-.1v-.2l-.4.3zm2 2.7l-.1.1v.2h.1l.1-.4-.1.1zm.9 9.8l.2.2-.1.1h-.1l-.2-.2.1-.1h.1zm1.9-.6v.4l-.6.1h-.2l.3-.4.1.1h.1l.3-.2zm1.3-.6l.4.8-.6-.4v-.1l.2-.3zm2.7-31.7l.1.1v.4l-.6.1v-.1l.5-.5zm2.4-1.8l-1.2 1v.2c.8-.7 1.3-1.1 1.5-1.1v-.1h-.3z"/><path d="M247.6 348.8c1.8.1 2.7.4 2.7.8l.6-.1h.2l.5.4v.2l-.1.6c.2 0 .4.1.4.2v.2l-.8 1.3.1-.9v-.1h-.1c-.6 1.9-1.1 3-1.6 3.5l-1.1 1.6c0 .8.4 1.4 1.1 1.8v.5h.1l.1-.1.1-.1h.1c.5.1.7.3.7.4l2-.6-1.5.4 1-.2c.2 0 .4.1.4.2v.4c0 .2-.1.4-.5.4l.1.1v.1c0 .2-.8.5-2.3.9-2-.2-3.1-1.2-3.1-2.9-3.6 2.5-6.2 3.9-7.8 4.2l-1.2.3c-.8-.2-1.5-.6-2.1-1.4l-.1-.5c.3-2 .6-3 1-3l.1-.1-.1-.1v-.1l.2-.5.1.1h.2c1.8-2.8 3.8-4.6 6-5.6l.1-.1v-.2l-1.1.6h-.2v-.1c.5-.5 1.9-1.2 4.3-2.1h1.1l.4-.4zM235.9 360v.6h.1v-.6h-.1zm1.3-1.1c.3.6.7 1 1.2 1.2l.2-.2.1.1h.1l.2-.2.1.1h.1l2.3-.9v.2l-1.6.8.4.1 3.4-1.8c2-1.5 3.1-2.3 3.1-2.5 0-.8.5-2.2 1.5-4.4v-.1l-1.9-.2c-2 .3-4.1 1.4-6.3 3.3l-1.8 2c-.7 1.2-1 2.1-1.1 2.5zm1.1-4.5l.1.1v.1l-.1.1h-.1l-.1-.1v-.1l.1-.1h.1zm1.1 5.7l.2.2h.1v-.2h-.3zm1.5-8.2l.1.1v.1l-.1.1h-.2v-.1l.2-.2zm2.6 6.1l.1.1v.1l-.1.1h-.1l-.1-.1v-.1l.1-.1h.1zm0-7.4h.2c.3-.2.6-.4 1-.4l.1-.1v-.1h-.1c-.8.2-1.2.4-1.2.6zm1.5-.8v.1h.6v-.2l-.6.1zm.9 6.5v.4h-.1l-.2-.2.1-.1.2-.1zm1.1 1.2v.6l.1-.1h.1l-.1-.5h-.1zm1.2.4v.1c.3.5.5.7.6.7v-.1l-.6-.7z"/><path d="M266 346h.4l.5.3.2-.2h.5c.2 0 .3.2.5.6l-.3.7c.3 0 .5.1.5.2v.4c0 .2-.4.3-1.2.4 0 .3-.7.8-2.2 1.4-2.7 2.5-4.4 4.6-5.1 6.3-.8 1.7-1.2 2.8-1.1 3.6v.4l.2.3-.2.4.1.6h.1v-.4l-.1-.1h.1l1.1 1v.2l-.1.1v.1l.5.1-.1-.1v-.1l.1-.1h.4c.1 0 .2.1.4.5 1.9-.1 5.7-1.9 11.4-5.4l.2-.2h.5l.2.2v.4c-.1.5-.6.9-1.4 1.3l-4.1 1.9-.6.3.1.1v.2l-1.8.9-.2-.2c0 .3-.3.6-1 .9 0 .2-.5.4-1.6.7l-.1-.1c0 .2-.8.4-2.3.6-1 0-1.9-.7-2.8-2.2v-.2h.2v.4h.1v-.2l-.1-.3h.1l-.1-.7h-.1v.7h-.2v-1.2c0-.2.1-.2.3-.2v-.1l-.2-.2c.7-2.5 1.3-3.9 1.8-4.3 0-.4 1-1.8 2.9-4.3h-.2c0 .2-.1.2-.3.2 0 .2-.1.4-.2.4v-.1l.1-.1v-.1h-.1l-1.6.5-.6-.1c-.6 0-1.4.9-2.4 2.6l-1.9 2.8-2.5 2.7-1.6.3v-.1l-.5-.1v-.5c0-.2.2-.3.6-.4v-.1c-.2 0-.4-.1-.4-.2v-.2c0-.2.2-.2.5-.1l1.1-.8h.1v.1l-.6.7h.1l1.5-1.2v-.2l-.6.4h-.1v-.1l.6-.6c.2 0 .2.1.2.3 2.2-2.7 3.4-4.3 3.7-5l-.1-.1c.2 0 .3-.1.3-.2-.8-.4-1.2-.9-1.2-1.5l.3-.2-.6-1.4v-.1c0-.7.4-1.1 1.4-1.1 1.1 0 1.8.2 2 .6v.6l-.1.1v.1l.1.1h.1c2.8-.7 4.8-1.6 6-2.8l.5-.5zm-12.6 9.9h.1l.2.2v.1h-.4l.1-.3zm.7-.6h.2v.2l-.2.2h-.2v-.2l.2-.2zm.5-.5h.1l-.4.5v-.1l.3-.4zm.9-1.1h.1v.2l-.5.1.4-.3zm.7-.9l.1.1v.1l-.1.1h-.1l-.1-.1v-.1l.1-.1h.1zm.1-2.7l.2.2v-.5l-.2.3zm5.8 11.6h.4v.2h-.1l-.3-.2zM69.4 125.1c2.6.4 5.1.2 7.6-.5 2.4-.7 4.8-1.7 7.1-3.1 2.3-1.3 4.5-2.8 6.6-4.5 2.1-1.7 4.1-3.4 5.9-5-1.3 1.2-2.7 2.6-4.4 4-1.6 1.4-3.3 2.7-5.1 4-1.8 1.3-3.7 2.4-5.7 3.4s-4 1.7-6.1 2.2c-2.1.5-4.1.6-6.2.4-2-.2-4-.9-6-2.1-1.9-1.2-3.5-2.7-4.8-4.5-1.3-1.8-2.4-3.7-3.3-5.9-.9-2.1-1.5-4.4-1.9-6.8-.4-2.4-.7-4.8-.8-7.2-.1-2.4-.1-4.8 0-7.2.1-2.4.4-4.5.7-6.6-.7-.1-1.5-.2-2.6-.4-1.1-.1-1.8-.2-2.3-.3-.6 1.1-1.1 2.1-1.7 3.1-.6 1-1.1 2-1.8 3.1-1 1.7-2 3.6-3.2 5.7-1.2 2.1-2.5 4.2-3.9 6.3-1.4 2.1-3 4.2-4.6 6.3-1.7 2-3.4 3.9-5.4 5.5-1.9 1.7-3.9 3-6 4.1-2.1 1.1-4.3 1.7-6.7 1.9-1.2.1-2.3-.1-3.3-.7S9.7 119 9.1 118c-1-1.6-1.5-3.3-1.5-5.2-.1-1.9.2-3.8.7-5.7.6-1.9 1.3-3.8 2.3-5.5 1-1.8 2-3.3 3.1-4.7 1.6-2 3.5-3.7 5.5-5.3 2-1.6 4.2-2.9 6.5-4 3.1-1.4 6.4-2.4 9.9-2.9 3.5-.6 7.1-.6 10.7-.3 1.3-1.9 2.6-3.8 3.8-5.7 1.2-1.9 2.6-3.8 3.9-5.7 1.4-1.9 2.8-3.7 4.3-5.5 1.5-1.8 3.2-3.4 5-5 .6-.6 1.5-1.4 2.5-2.3l3.3-2.7c1.2-.9 2.4-1.7 3.6-2.4 1.2-.7 2.3-1.2 3.2-1.5.8-.2 1.3-.1 1.6.4.2.5.2 1.1-.1 1.8-.2.6-.5 1-.9 1.3-.3.3-.7.6-1.1.9.3-.3.5-.7.6-1.1 0-.4 0-.7-.2-.9-.2-.2-.5-.4-1-.4s-1 .1-1.7.4c-2.4 1.2-4.5 2.8-6.4 5.1-1.9 2.2-3.6 4.7-5.1 7.5-1.5 2.7-2.8 5.6-3.8 8.5-1.1 2.9-1.9 5.7-2.5 8.3.8.1 1.6.2 2.5.3.9 0 1.8 0 2.7-.2.9-.2 1.7-.4 2.4-.8s1.3-.9 1.8-1.5c-.5 1.1-1.1 1.9-1.9 2.4-.8.5-1.6.8-2.5 1-.9.1-1.8.2-2.7.1-.9-.1-1.7-.2-2.4-.4-.5 2.9-.9 5.8-1.1 8.8-.2 3-.1 6.1.3 9.3.2 2.2.7 4.5 1.4 6.7.7 2.3 1.6 4.4 2.8 6.4 1.2 2 2.7 3.7 4.5 5.1 1.6 1.1 3.7 2.1 6.3 2.5zM37.8 99.5c1.4-2.4 2.7-4.9 4.1-7.4 1.3-2.5 2.7-4.9 4.1-7.4-3.4-.3-6.8-.3-10.1.1s-6.6 1.4-9.7 2.9c-2.3 1.1-4.4 2.5-6.3 4.1-1.9 1.6-3.6 3.5-5 5.6-.5.7-1 1.6-1.6 2.7-.6 1.1-1.1 2.3-1.6 3.6s-.9 2.7-1.3 4.1c-.4 1.4-.6 2.8-.6 4.2 0 1.3.1 2.6.4 3.7.3 1.1 1 2.1 1.9 2.8 1.3 1 2.8 1.4 4.4 1.3 1.6-.2 3.2-.6 4.8-1.4s3.1-1.8 4.4-2.9c1.4-1.1 2.5-2.1 3.3-3.1 1.8-2 3.4-4.1 4.8-6.3 1.3-2 2.7-4.3 4-6.6zm10.6-15c.8.1 1.6.2 2.3.3.7.1 1.5.2 2.3.4.5-2.3 1.1-4.5 1.8-6.7s1.6-4.4 2.6-6.6c1.1-2.2 2.4-4.2 3.7-6.2 1.4-2 3-3.8 4.8-5.4-2 1.6-3.8 3.3-5.4 5.3-1.6 1.9-3.1 3.9-4.5 6s-2.7 4.2-3.9 6.4c-1.3 2.1-2.5 4.3-3.7 6.5z"/><path d="M130 68.1c4-.3 7.8-1.2 11.4-2.8 3.6-1.6 6.9-3.7 10-6.3-2.1 2.7-4.4 4.8-7 6.3-2.6 1.6-5.4 2.7-8.4 3.6-3 .8-6.1 1.3-9.4 1.6-3.3.2-6.6.2-10 .1-3.9-.2-7.8-.4-11.7-.8-3.9-.3-8-.5-12.4-.5h-7.3c-2.5 0-4.9 0-7.4.1l-.6 1.2c-.3.3-.5.7-.6 1.2-1.5 2.8-2.8 5.7-4.1 8.6-1.3 2.9-2.5 5.8-3.8 8.9-.3.5-.6 1.5-1.2 3-.5 1.5-1.1 3.2-1.6 5-.6 1.8-1 3.6-1.4 5.2-.3 1.7-.4 3-.2 3.8.2.9.8 1.2 1.7 1 .9-.2 2.4-1.4 4.3-3.6 1.5-1.5 2.8-3.1 4.1-4.8 1.2-1.7 2.3-3.3 3.2-4.7v1.2c-.7 1.1-1.7 2.5-2.9 4.2-1.3 1.7-2.6 3.3-4.1 4.9-1.3 1.5-2.6 2.8-3.9 3.9-1.3 1.1-2.5 1.7-3.4 1.9-.9.1-1.5-.3-1.8-1.4-.3-1.1-.1-3.1.6-6.1 1.2-5.7 3-11.3 5.2-16.7 2.3-5.4 4.8-10.9 7.4-16.4-.3 0-.5 0-.8.1-.3 0-.5.1-.8.1-6.1.2-12.1 1-18.1 2.1-6 1.1-12.2 2.6-18.8 4.4.6-.2 1.2-.4 1.7-.6.5-.2 1-.4 1.6-.6 11.8-3.6 23.8-6.1 36-7.4 1.5-3.1 3.1-6.4 4.9-9.9 1.8-3.5 3.8-7 5.9-10.4 2.1-3.5 4.4-6.8 6.8-9.9 2.4-3.1 5-6 7.6-8.5 1.1-1.1 2.1-1.7 2.9-1.7.8 0 1.5.2 1.9.6.5.5.8 1.1.8 1.9.1.8 0 1.4-.3 1.9 0-.3 0-.6-.1-.9-.2-.5-.6-.6-1.3-.3-2.5 1.6-5 3.8-7.5 6.7-2.5 2.9-4.9 6.1-7.1 9.6-2.2 3.5-4.3 7.1-6.3 10.7-1.9 3.6-3.6 6.9-5.1 9.8.9 0 1.9 0 3-.1 1 0 2.5-.1 4.5-.2 3.6-.1 7.2 0 10.8.1 3.6.2 7.2.4 10.9.6 3.7.2 7.3.4 11 .5 3.8.3 7.5.1 11.2-.2z"/><path d="M80.7 102.7v.5c-.3.6-.8 1.2-1.3 1.9-.6.7-1.2 1.4-1.9 2.2-1.4 1.6-2.7 2.5-3.7 2.6-.4 0-.7-.2-.8-.8-.1-.6 0-1.5.2-2.8.1-.4.2-1 .4-1.7.2-.6.5-1.3.8-2.1.3-.9.7-1.9 1.3-3 .5-.9.9-1.4 1.2-1.5.3-.1.6-.1.8.1.2.2.3.6.4 1 .1.4 0 .8-.1 1 0-.2-.1-.3-.1-.4l-.2-.2c-.1 0-.2 0-.3.1a5 5 0 0 0-1.1 1.6c-.3.7-.6 1.5-.8 2.2-.2.7-.4 1.4-.6 2-.1.6-.2.9-.2 1-.2.9-.2 1.5 0 1.7.2.2.4.3.8.1.5-.2 1-.5 1.5-.9l1.5-1.5c.5-.5.9-1.1 1.3-1.7.4-.4.7-.9.9-1.4zM78 94.9c-.4-.1-.6-.2-.6-.5 0-.2 0-.5.2-.7.1-.2.3-.4.5-.6.2-.2.4-.2.6-.2.2 0 .3.2.4.4.1.2.1.5.1.8 0 .3-.2.5-.4.7-.1.2-.4.3-.8.1z"/><path d="M100.6 73.7c-.1 2.5-.7 5-1.9 7.4-1.1 2.5-2.4 4.8-3.9 6.9-1.5 2.1-3 4-4.5 5.7-1.5 1.7-2.8 3-3.7 3.9 1-.5 1.7-.7 2.2-.6.5.1.8.3 1 .7.1.4 0 .9-.2 1.5-.3.6-.7 1.2-1.3 1.8s-1.4 1.2-2.3 1.7c-.9.5-2 .9-3.3 1 0 .4.1.8.3 1.4.2.6.5 1.2.9 1.7.4.6.8 1 1.2 1.3.5.3.9.5 1.4.3.4-.2.9-.6 1.4-1 .5-.5 1-1 1.4-1.5.5-.6.9-1.1 1.3-1.7.4-.6.8-1.1 1.1-1.6l-.2.8c-.7 1.1-1.5 2.2-2.3 3.3s-1.8 2-2.9 2.8c-.8.5-1.5.6-2.1.2-.6-.4-1-1-1.4-1.8-.4-.8-.6-1.6-.8-2.4-.2-.8-.3-1.4-.3-1.7h-.4c-.3.6-.6 1.2-.8 1.8-.3.6-.6 1.3-.8 1.8-.3.6-.5 1.1-.7 1.5-.2.4-.4.7-.5.9-.2.2-.2 0-.1-.5s.3-1.2.5-2.1c.2-.9.5-1.8.9-2.8.3-1 .7-1.9 1-2.7.3-.8.7-1.8 1.3-3.1.6-1.3 1.2-2.8 2-4.4.8-1.6 1.6-3.3 2.5-5.2.9-1.8 1.9-3.6 2.9-5.3 1-1.7 2-3.3 2.9-4.8 1-1.5 1.9-2.8 2.9-3.8 1-1.1 1.8-1.9 2.5-2.5.7-.6 1.2-.9 1.7-1 .5-.1.8 0 1 .3.1.7.2 1.2.1 1.8zM88.3 98c-.1-.2-.4-.3-.9-.2-.5 0-1.2.4-2.1 1.2-.7.6-1.5 1.2-2.2 2.1-.8.8-1.3 1.7-1.6 2.7 2.9-.4 4.9-1.2 6-2.4 1.2-1.3 1.5-2.4.8-3.4zm4.1-18c-.2.4-.6 1-1 1.8L90 84.6c-.5 1.1-1.1 2.2-1.7 3.5-.6 1.2-1.2 2.5-1.7 3.7-1.3 2.9-2.8 6.1-4.3 9.5 2-1.9 3.9-3.8 5.7-5.7 1.8-1.9 3.4-3.9 4.8-5.9 1.4-2 2.6-4.1 3.6-6.3s1.8-4.5 2.3-6.9c.2-1 .3-1.8.3-2.4s-.3-.9-.8-.8c-.4.1-1.1.7-2 1.7-1 1.1-2.3 2.7-3.8 5z"/><path d="M104.1 103.4c-.3.6-.8 1.2-1.3 1.9-.6.7-1.2 1.4-1.9 2.2-.7.8-1.3 1.4-2 2s-1.2.8-1.6.7c-.4 0-.7-.2-.9-.8-.2-.5-.1-1.5.2-2.8l.2-.7c.1-.5.4-1.2.7-2.2-.4.6-1 1.2-1.6 2-.6.8-1.3 1.6-2 2.2-.7.7-1.4 1.3-2 1.7-.7.4-1.3.6-1.8.5-.6-.2-.8-.6-.8-1.3 0-.7.2-1.4.5-2.3.3-.8.6-1.7 1-2.5s.7-1.4.9-1.9c.2-.4.5-.9.8-1.5.3-.6.5-.9.5-1.1 0-.2 0-.3-.1-.4-.1-.1-.2-.1-.3 0-.2 0-.3.1-.5.2.9-.7 1.5-1.1 1.9-1.1.4 0 .5.2.6.6 0 .4-.1.9-.3 1.4-.2.6-.4 1.1-.6 1.5-1 1.9-1.6 3.5-2.1 4.8-.4 1.3-.4 2.1 0 2.4.2.2.6.1 1.2-.4s1.2-1.1 1.9-1.8 1.3-1.5 2-2.3c.6-.8 1.1-1.4 1.4-1.8.2-.4.4-.9.6-1.4s.4-1 .7-1.6c.4-.9.8-1.4 1.2-1.5.3-.1.6-.1.8.1.2.2.4.6.4 1 .1.4 0 .8-.1 1 0-.2-.1-.3-.1-.4-.1-.1-.2-.1-.2-.2-.1 0-.2 0-.3.1a5 5 0 0 0-1.1 1.6c-.3.7-.6 1.5-.8 2.2-.2.7-.4 1.4-.6 2-.1.6-.2.9-.3 1-.4 1.7-.2 2.4.7 2.2.4-.1.8-.4 1.2-.8l1-1c.6-.6 1.2-1.4 1.8-2.2.6-.8 1.1-1.5 1.4-2l-.3.7zM238.7 137.1c4.7.7 9.2.4 13.6-.9s8.7-3.1 12.8-5.5c4.1-2.4 8-5.1 11.8-8.2 3.8-3.1 7.3-6.1 10.7-9-2.3 2.2-4.9 4.6-7.8 7.1-2.9 2.5-6 4.9-9.3 7.2-3.3 2.3-6.7 4.3-10.3 6.1-3.6 1.8-7.2 3.1-10.9 3.9-3.7.8-7.4 1-11.1.6-3.7-.4-7.3-1.7-10.8-3.8-3.4-2.2-6.2-4.8-8.6-8-2.4-3.2-4.3-6.7-5.9-10.6-1.6-3.8-2.7-7.9-3.5-12.2-.8-4.3-1.3-8.7-1.5-13-.2-4.4-.2-8.7.1-12.9.3-4.2.7-8.2 1.3-11.8-1.2-.2-2.8-.4-4.7-.6-1.9-.3-3.3-.4-4.1-.5-1 2-2.1 3.9-3 5.6-1 1.8-2.1 3.6-3.2 5.5-1.7 3-3.6 6.4-5.8 10.2-2.1 3.8-4.5 7.6-7.1 11.4-2.6 3.8-5.4 7.6-8.4 11.3-3 3.7-6.2 7-9.6 10-3.5 3-7.1 5.4-10.9 7.3-3.8 1.9-7.8 3-12 3.4-2.2.2-4.1-.2-6-1.2-1.8-1-3.3-2.4-4.4-4.2-1.7-2.8-2.7-6-2.8-9.4-.1-3.4.3-6.8 1.3-10.3 1-3.5 2.4-6.8 4.1-9.9 1.8-3.1 3.6-6 5.6-8.5 2.9-3.5 6.2-6.7 9.8-9.5 3.6-2.8 7.5-5.2 11.7-7.2 5.6-2.5 11.6-4.2 17.9-5.2 6.3-1 12.7-1.1 19.2-.5l6.9-10.2c2.2-3.5 4.6-6.9 7.1-10.3 2.5-3.4 5-6.7 7.8-9.9 2.7-3.2 5.7-6.2 9-8.9 1.1-1.1 2.6-2.5 4.5-4.1 1.9-1.6 3.9-3.2 6-4.8 2.1-1.6 4.3-3 6.4-4.3 2.2-1.3 4.1-2.2 5.8-2.7 1.5-.4 2.4-.2 2.8.8.4 1 .4 2-.1 3.2-.4 1-1 1.8-1.6 2.4-.6.6-1.3 1.1-1.9 1.6.6-.6.9-1.2 1-1.9.1-.7 0-1.3-.4-1.7-.3-.4-.9-.7-1.7-.8-.8-.1-1.8.2-3 .8-4.2 2.1-8.1 5.1-11.5 9.1-3.5 4-6.5 8.5-9.2 13.4-2.7 4.9-5 10-6.9 15.3-1.9 5.3-3.4 10.2-4.5 14.9 1.4.3 2.9.4 4.5.5 1.6 0 3.3-.1 4.9-.4 1.6-.3 3.1-.8 4.4-1.4 1.3-.6 2.4-1.6 3.2-2.8-.9 2-2 3.4-3.4 4.3-1.4.9-2.9 1.5-4.5 1.7-1.6.3-3.3.3-4.9.1-1.6-.2-3.1-.4-4.4-.6-1 5.2-1.6 10.5-2 15.9-.4 5.4-.2 10.9.5 16.6.4 4 1.3 8 2.5 12.1s2.9 7.9 5 11.5c2.2 3.5 4.8 6.6 8 9.1 3.1 2.4 7 4 11.5 4.8zm-56.8-45.9c2.5-4.4 4.9-8.8 7.3-13.3 2.4-4.4 4.9-8.9 7.4-13.3-6.1-.6-12.2-.5-18.2.2S166.6 67.3 161 70c-4.1 2-7.9 4.4-11.4 7.4-3.5 2.9-6.5 6.3-9.1 10.1-.9 1.2-1.8 2.8-2.8 4.8-1 2-2 4.2-2.9 6.5-.9 2.4-1.7 4.9-2.3 7.4s-1 5.1-1.1 7.5c-.1 2.4.2 4.6.8 6.7.6 2 1.7 3.7 3.4 5 2.3 1.8 5 2.6 7.9 2.3 2.9-.3 5.8-1.2 8.7-2.6 2.8-1.4 5.5-3.2 8-5.2s4.4-3.9 5.9-5.5c3.3-3.6 6.2-7.4 8.7-11.3 2.4-3.8 4.8-7.8 7.1-11.9zm19.2-27.1c1.5.2 2.8.3 4.1.5 1.3.2 2.7.4 4.1.6.9-4.1 1.9-8.1 3.2-12.1 1.3-4 2.8-8 4.7-11.8 2-3.9 4.2-7.6 6.7-11.2 2.5-3.6 5.4-6.8 8.5-9.8-3.6 2.8-6.9 6-9.8 9.5-2.9 3.5-5.6 7.1-8 10.8-2.5 3.8-4.8 7.6-7.1 11.6-2.1 3.9-4.3 7.9-6.4 11.9z"/><path d="M226 101.4c-.2.7-.4 1.4-.6 2.2-.2.7-.3 1.5-.3 2.3 0 1.1.1 1.9.4 2.4.2.5.6.8 1 .8s.9-.2 1.4-.6c.5-.4 1.1-.9 1.8-1.6-.6-.2-1-.5-1.2-1-.2-.5-.3-1-.3-1.6 0-.6.1-1.2.3-1.8.2-.6.4-1.1.6-1.6.4-.8.9-1.4 1.5-1.9s1.2-.8 1.8-1c.6-.2 1.1-.2 1.5 0 .4.2.7.5.8 1 .1.7-.3 1.8-1.1 3.1-.8 1.4-1.8 2.7-2.9 4 1 .2 1.9 0 2.7-.4.8-.4 1.6-1.1 2.2-1.9.2-.4.4-.6.6-.9.1-.2.3-.5.6-1 0-.1.1-.1.1-.1.1 0 .1.1.1.2-.2.3-.3.5-.5.8-.1.2-.3.4-.4.6-.1.2-.3.4-.3.4-.2.4-.6.7-1 1.1-.4.4-.9.8-1.4 1s-1.1.5-1.7.7c-.6.1-1.2.1-1.8 0-.3.4-.8.8-1.4 1.4-.6.6-1.2 1-1.8 1.3-.6.3-1.3.4-1.8.3-.6-.1-1-.7-1.2-1.8-.2-1.1-.2-2.6.2-4.4.3-1.8 1-3.8 2-6.1.7-1.6 1.6-3.5 2.6-5.6 1-2.1 2.1-4.2 3.2-6.2s2.3-4.1 3.5-5.9c1.2-1.9 2.3-3.4 3.3-4.6 1-1.1 1.8-1.9 2.5-2.5.7-.6 1.2-.9 1.7-1 .5-.1.8 0 1 .3.2.3.3.8.2 1.3-.1 1.8-.5 3.7-1.1 5.5-.7 1.8-1.5 3.6-2.4 5.2-.9 1.7-2 3.3-3.1 4.8s-2.2 2.9-3.3 4.1c-1.1 1.2-2.1 2.3-2.9 3.2-.9.9-1.5 1.6-2 2l-.5.5-.9.9-.9.9c-.5 1-.7 1.1-.8 1.2zm15.9-24.9c.2-1 .3-1.8.2-2.4s-.3-.9-.8-.8c-.4.1-1.1.7-2 1.7-.9 1-2.1 2.7-3.7 5-.3.4-.7 1.1-1.2 2.1s-1.1 2.1-1.7 3.4c-.6 1.3-1.3 2.7-2 4.2l-2.1 4.5c-.6 1.2-1 2.4-1.4 3.5-.4 1.1-.8 2.1-1.1 3 2-1.8 3.8-3.7 5.5-5.5 1.7-1.9 3.2-3.8 4.5-5.7 1.3-2 2.5-4 3.4-6.1 1.1-2.3 1.8-4.5 2.4-6.9zm-12.8 25.3c-.4 1.3-.6 2.2-.3 2.9.2.6.5 1.1.9 1.3l.2.1c.1 0 .2.1.2.1.5-.6.9-1.1 1.3-1.8.4-.6.8-1.2 1-1.8s.5-1.1.7-1.6c.2-.5.2-.9.2-1.2 0-.5-.2-.9-.6-1-.3-.2-.7-.2-1.2 0-.4.2-.9.5-1.4 1-.3.5-.7 1.2-1 2z"/><path d="M248.6 103.4c-.3.6-.8 1.2-1.3 1.9-.6.7-1.2 1.4-1.9 2.2-.7.8-1.3 1.4-2 2s-1.2.8-1.6.7c-.4 0-.7-.2-.9-.8-.2-.5-.1-1.5.2-2.8l.2-.7c.1-.5.4-1.2.7-2.2-.4.6-1 1.2-1.6 2-.6.8-1.3 1.6-2 2.2-.7.7-1.4 1.3-2 1.7-.7.4-1.3.6-1.8.5-.6-.2-.8-.6-.8-1.3 0-.7.2-1.4.5-2.3.3-.8.6-1.7 1-2.5s.7-1.4.9-1.9c.2-.4.5-.9.8-1.5.3-.6.5-.9.5-1.1 0-.2 0-.3-.1-.4-.1-.1-.2-.1-.3 0-.2 0-.3.1-.5.2.9-.7 1.5-1.1 1.9-1.1.4 0 .5.2.6.6 0 .4-.1.9-.3 1.4-.2.6-.4 1.1-.6 1.5-1 1.9-1.6 3.5-2.1 4.8-.4 1.3-.4 2.1 0 2.4.2.2.6.1 1.2-.4s1.2-1.1 1.9-1.8 1.3-1.5 2-2.3c.6-.8 1.1-1.4 1.4-1.8.2-.4.4-.9.6-1.4s.4-1 .7-1.6c.4-.9.8-1.4 1.2-1.5.3-.1.6-.1.8.1.2.2.4.6.4 1 .1.4 0 .8-.1 1 0-.2-.1-.3-.1-.4-.1-.1-.2-.1-.2-.2-.1 0-.2 0-.3.1a5 5 0 0 0-1.1 1.6c-.3.7-.6 1.5-.8 2.2-.2.7-.4 1.4-.6 2-.1.6-.2.9-.3 1-.4 1.7-.2 2.4.7 2.2.4-.1.8-.4 1.2-.8l1-1c.6-.6 1.2-1.4 1.8-2.2.6-.8 1.1-1.5 1.4-2l-.3.7z"/><path d="M250.3 101.4c-.2.7-.4 1.4-.6 2.2-.2.7-.3 1.5-.3 2.3 0 1.1.1 1.9.4 2.4.2.5.6.8 1 .8s.9-.2 1.4-.6c.5-.4 1.1-.9 1.8-1.6-.6-.2-1-.5-1.2-1-.2-.5-.3-1-.3-1.6 0-.6.1-1.2.3-1.8.2-.6.4-1.1.6-1.6.4-.8.9-1.4 1.5-1.9s1.2-.8 1.8-1c.6-.2 1.1-.2 1.5 0 .4.2.7.5.8 1 .1.7-.3 1.8-1.1 3.1-.8 1.4-1.8 2.7-2.9 4 1 .2 1.9 0 2.7-.4.8-.4 1.6-1.1 2.2-1.9.2-.4.4-.6.6-.9.1-.2.3-.5.6-1 0-.1.1-.1.1-.1.1 0 .1.1.1.2-.2.3-.3.5-.5.8-.1.2-.3.4-.4.6-.1.2-.3.4-.3.4-.2.4-.6.7-1 1.1-.4.4-.9.8-1.4 1s-1.1.5-1.7.7c-.6.1-1.2.1-1.8 0-.3.4-.8.8-1.4 1.4-.6.6-1.2 1-1.8 1.3-.6.3-1.3.4-1.8.3-.6-.1-1-.7-1.2-1.8-.2-1.1-.2-2.6.2-4.4.3-1.8 1-3.8 2-6.1.7-1.6 1.6-3.5 2.6-5.6 1-2.1 2.1-4.2 3.2-6.2s2.3-4.1 3.5-5.9c1.2-1.9 2.3-3.4 3.3-4.6 1-1.1 1.8-1.9 2.5-2.5.7-.6 1.2-.9 1.7-1 .5-.1.8 0 1 .3.2.3.3.8.2 1.3-.1 1.8-.5 3.7-1.1 5.5-.7 1.8-1.5 3.6-2.4 5.2-.9 1.7-2 3.3-3.1 4.8s-2.2 2.9-3.3 4.1c-1.1 1.2-2.1 2.3-2.9 3.2-.9.9-1.5 1.6-2 2l-.5.5-.9.9-.9.9c-.5 1-.7 1.1-.8 1.2zm15.9-24.9c.2-1 .3-1.8.2-2.4s-.3-.9-.8-.8c-.4.1-1.1.7-2 1.7-.9 1-2.1 2.7-3.7 5-.3.4-.7 1.1-1.2 2.1s-1.1 2.1-1.7 3.4c-.6 1.3-1.3 2.7-2 4.2l-2.1 4.5c-.6 1.2-1 2.4-1.4 3.5-.4 1.1-.8 2.1-1.1 3 2-1.8 3.8-3.7 5.5-5.5 1.7-1.9 3.2-3.8 4.5-5.7 1.3-2 2.5-4 3.4-6.1 1.1-2.3 1.8-4.5 2.4-6.9zm-12.8 25.3c-.4 1.3-.6 2.2-.3 2.9.2.6.5 1.1.9 1.3l.2.1c.1 0 .2.1.2.1.5-.6.9-1.1 1.3-1.8.4-.6.8-1.2 1-1.8s.5-1.1.7-1.6c.2-.5.2-.9.2-1.2 0-.5-.2-.9-.6-1-.3-.2-.7-.2-1.2 0-.4.2-.9.5-1.4 1-.3.5-.7 1.2-1 2z"/><path d="M273.7 103.1c-.2.3-.6.9-1.1 1.6s-1.2 1.5-1.8 2.3c-.7.8-1.4 1.5-2.1 2.1-.7.6-1.4.9-1.9.9s-.8-.3-.9-.8c-.1-.5-.1-1.5.3-2.8l.5-1.8c-.4.8-.9 1.6-1.6 2.4-.7.7-1.4 1.4-2.1 1.9-.7.5-1.4.8-2.1 1-.7.2-1.2.1-1.6-.2-.4-.3-.6-.8-.6-1.7s.3-2 1-3.6c.3-.6.6-1.3 1.1-2 .5-.7 1-1.3 1.5-1.8.5-.6 1.1-1 1.7-1.5.6-.4 1.1-.7 1.7-.9.6-.2 1.2-.3 1.8-.2.7.1 1.1.4 1.5 1 .4-.6.8-1 1.1-1 .3-.1.6 0 .8.3.2.2.3.5.3.9s0 .7-.1.9c0-.2 0-.4-.1-.5-.1-.3-.3-.3-.6 0a5 5 0 0 0-1.1 1.6c-.3.7-.6 1.4-.8 2.2-.2.7-.4 1.4-.6 2-.1.6-.2.9-.3 1-.2.9-.3 1.5-.1 1.8.2.3.4.5.8.3.4-.1.9-.4 1.4-.9.5-.5 1-1 1.6-1.7.5-.6 1-1.2 1.4-1.9.4-.6.8-1.1 1-1.6v.7zm-6.4-.5c.8-1.6 1-2.7.6-3.4-.4-.7-1-.9-1.9-.7-.9.2-1.9.9-2.9 2s-2 2.7-2.7 4.7c-.5 1.4-.5 2.4-.1 3 .4.6 1 .8 1.7.6.8-.2 1.7-.8 2.7-1.8 1-1.1 1.8-2.5 2.6-4.4z"/><path d="M293.2 73.7c-.1 2.5-.7 5-1.9 7.4-1.1 2.5-2.4 4.8-3.9 6.9-1.5 2.1-3 4-4.5 5.7-1.5 1.7-2.8 3-3.7 3.9 1-.5 1.7-.7 2.2-.6.5.1.8.3 1 .7.1.4 0 .9-.2 1.5-.3.6-.7 1.2-1.3 1.8s-1.4 1.2-2.3 1.7c-.9.5-2 .9-3.3 1 0 .4.1.8.3 1.4.2.6.5 1.2.9 1.7.4.6.8 1 1.2 1.3.5.3.9.5 1.4.3.4-.2.9-.6 1.4-1 .5-.5 1-1 1.4-1.5.5-.6.9-1.1 1.3-1.7.4-.6.8-1.1 1.1-1.6l-.2.8c-.7 1.1-1.5 2.2-2.3 3.3s-1.8 2-2.9 2.8c-.8.5-1.5.6-2.1.2-.6-.4-1-1-1.4-1.8-.4-.8-.6-1.6-.8-2.4-.2-.8-.3-1.4-.3-1.7h-.4c-.3.6-.6 1.2-.8 1.8-.3.6-.6 1.3-.8 1.8-.3.6-.5 1.1-.7 1.5-.2.4-.4.7-.5.9-.2.2-.2 0-.1-.5s.3-1.2.5-2.1c.2-.9.5-1.8.9-2.8.3-1 .7-1.9 1-2.7.3-.8.7-1.8 1.3-3.1.6-1.3 1.2-2.8 2-4.4.8-1.6 1.6-3.3 2.5-5.2.9-1.8 1.9-3.6 2.9-5.3 1-1.7 2-3.3 2.9-4.8 1-1.5 1.9-2.8 2.9-3.8 1-1.1 1.8-1.9 2.5-2.5.7-.6 1.2-.9 1.7-1 .5-.1.8 0 1 .3 0 .7.1 1.2.1 1.8zM280.9 98c-.1-.2-.4-.3-.9-.2-.5 0-1.2.4-2.1 1.2-.7.6-1.5 1.2-2.2 2.1-.8.8-1.3 1.7-1.6 2.7 2.9-.4 4.9-1.2 6-2.4 1.2-1.3 1.4-2.4.8-3.4zm4-18c-.2.4-.6 1-1 1.8l-1.4 2.8c-.5 1.1-1.1 2.2-1.7 3.5-.6 1.2-1.2 2.5-1.7 3.7-1.3 2.9-2.8 6.1-4.3 9.5 2-1.9 3.9-3.8 5.7-5.7 1.8-1.9 3.4-3.9 4.8-5.9 1.4-2 2.6-4.1 3.6-6.3s1.8-4.5 2.3-6.9c.2-1 .3-1.8.3-2.4s-.3-.9-.8-.8c-.4.1-1.1.7-2 1.7-1 1.1-2.2 2.7-3.8 5z"/><path d="M297.4 103.1c-.2.3-.6.9-1.1 1.6s-1.2 1.5-1.8 2.3c-.7.8-1.4 1.5-2.1 2.1-.7.6-1.4.9-1.9.9s-.8-.3-.9-.8c-.1-.5-.1-1.5.3-2.8l.5-1.8c-.4.8-.9 1.6-1.6 2.4-.7.7-1.4 1.4-2.1 1.9-.7.5-1.4.8-2.1 1-.7.2-1.2.1-1.6-.2-.4-.3-.6-.8-.6-1.7s.3-2 1-3.6c.3-.6.6-1.3 1.1-2 .5-.7 1-1.3 1.5-1.8.5-.6 1.1-1 1.7-1.5.6-.4 1.1-.7 1.7-.9.6-.2 1.2-.3 1.8-.2.7.1 1.1.4 1.5 1 .4-.6.8-1 1.1-1 .3-.1.6 0 .8.3.2.2.3.5.3.9s0 .7-.1.9c0-.2 0-.4-.1-.5-.1-.3-.3-.3-.6 0a5 5 0 0 0-1.1 1.6c-.3.7-.6 1.4-.8 2.2-.2.7-.4 1.4-.6 2-.1.6-.2.9-.3 1-.2.9-.3 1.5-.1 1.8.2.3.4.5.8.3.4-.1.9-.4 1.4-.9.5-.5 1-1 1.6-1.7.5-.6 1-1.2 1.4-1.9.4-.6.8-1.1 1-1.6v.7zm-6.5-.5c.8-1.6 1-2.7.6-3.4-.4-.7-1-.9-1.9-.7-.9.2-1.9.9-2.9 2s-2 2.7-2.7 4.7c-.5 1.4-.5 2.4-.1 3 .4.6 1 .8 1.7.6.8-.2 1.7-.8 2.7-1.8 1-1.1 1.9-2.5 2.6-4.4z"/><path d="M306.1 103.6c-.3.5-.8 1.1-1.3 1.8-.6.7-1.2 1.5-1.8 2.2-.6.7-1.3 1.3-2 1.8s-1.3.8-1.8.8c-.3 0-.6-.1-.8-.4-.2-.3-.2-.8-.1-1.4.2-.9.5-1.7.8-2.5.4-.8.8-1.7 1.3-2.6.2-.4.3-.8.4-1.2.1-.5-.1-.8-.4-1.2-.1-.1-.3-.2-.6-.5-.3-.2-.5-.3-.6-.3-.1.3-.3.7-.6 1.1-.3.5-.6.9-.8 1.3-.4.5-.7 1.1-1.1 1.7-.1.1-.1.1-.2 0s-.1-.1 0-.2c.5-.7.9-1.3 1.1-1.8.3-.5.5-.9.8-1.4.3-.4.4-.8.5-1-1-.5-1.4-1-1.4-1.6s.2-1.1.5-1.5c.4-.4.8-.5 1.2-.3.4.1.6.7.5 1.7 0 .3-.1.6-.2.9-.1.3-.2.5-.2.6.3.2.6.3 1 .5.4.1.8.3 1.1.4.4.2.6.4.7.6.1.2.2.5.1.7 0 .2-.1.5-.2.7l-.3.6c-.4.7-.7 1.4-1 2.1-.3.7-.5 1.5-.8 2.3-.2 1.1-.2 1.6.2 1.6s.9-.3 1.5-.9c.6-.6 1.4-1.4 2.1-2.3s1.4-1.9 2-2.8l.4.5zm-7.1-4c.2-.3.3-.6.4-1 .1-.4.1-.7 0-1-.2-.3-.4-.4-.6-.2-.2.1-.3.3-.4.6-.1.3-.1.6 0 .9.1.3.3.5.6.7z"/></svg>
