<?xml version="1.0" encoding="utf-8"?>
<!-- Generator: Adobe Illustrator 22.1.0, SVG Export Plug-In . SVG Version: 6.00 Build 0)  -->
<svg version="1.1" id="Capa_1" xmlns="http://www.w3.org/2000/svg" xmlns:xlink="http://www.w3.org/1999/xlink" x="0px" y="0px"
	 viewBox="0 0 535.5 535.5" style="enable-background:new 0 0 535.5 535.5;" xml:space="preserve">
<style type="text/css">
	.st0{fill:#DB5700;}
</style>
<g>
	<g id="notifications-on">
		<path class="st0" d="M142.8,53.5l-35.7-35.7C45.9,63.8,5.1,135.1,0,216.8h51C56.1,147.9,89.2,89.2,142.8,53.5z M484.5,216.8h51
			c-5.1-81.6-43.4-153-104.5-198.9l-35.7,35.7C446.2,89.2,479.4,147.9,484.5,216.8z M433.5,229.5c0-79.1-53.5-142.8-127.5-160.6V51
			c0-20.4-17.9-38.2-38.2-38.2S229.5,30.6,229.5,51v17.8C155.6,86.7,102,150.4,102,229.5v140.2l-51,51v25.5h433.5v-25.5l-51-51
			V229.5z M267.8,522.8c2.5,0,7.6,0,10.2,0c17.9-2.5,30.6-15.3,35.7-30.6c2.5-5.1,5.1-12.8,5.1-20.4h-102
			C216.8,499.8,239.7,522.8,267.8,522.8z"/>
	</g>
</g>
</svg>
